<?xml version="1.0" encoding="utf-8"?>
<!-- Generator: Adobe Illustrator 23.0.0, SVG Export Plug-In . SVG Version: 6.00 Build 0)  -->
<svg version="1.1" id="layer_1" xmlns="http://www.w3.org/2000/svg" xmlns:xlink="http://www.w3.org/1999/xlink" x="0px" y="0px"
	 viewBox="0 0 249.5 276.1" style="enable-background:new 0 0 249.5 276.1;" xml:space="preserve">
<style type="text/css">
	.st0{fill:url(#SVGID_1_);}
	.st1{enable-background:new    ;}
	.st2{fill:#551F9E;}
	.st3{fill:#371466;}
	.st4{fill:#6E39B8;}
	.st5{fill:#4B2185;}
	.st6{fill:#E1E1FF;}
	.st7{fill:#D41591;}
	.st8{fill:#BA127F;}
	.st9{fill:#FC35B7;}
	.st10{fill:#FF4D77;}
	.st11{fill:#E33D65;}
	.st12{fill:#C73558;}
	.st13{fill:#541E9C;}
	.st14{fill:#E65C73;}
	.st15{fill:#FC7E93;}
	.st16{fill:#A1A1E6;}
	.st17{fill:#AFAFE6;}
	.st18{fill:#6032A1;}
	.st19{fill:#DB586E;}
	.st20{fill:#FC9CAD;}
</style>
<g>
	<g>
		
			<linearGradient id="SVGID_1_" gradientUnits="userSpaceOnUse" x1="41.2467" y1="109.1765" x2="210.1019" y2="109.1765" gradientTransform="matrix(0.9956 -9.410000e-02 9.410000e-02 0.9956 -14.4295 42.1664)">
			<stop  offset="0" style="stop-color:#FFE0C3"/>
			<stop  offset="1" style="stop-color:#FC9CAD"/>
		</linearGradient>
		<path class="st0" d="M102.4,25.6c45.4,20.8,83.2,76.5,88.1,122.7c1.6,15.4,7,32.2,15.1,48.7c4.6,9.3,7.6,19.1,8.3,28.3
			c2.2,27.4-16.6,40.2-41.9,28.6c-11.4-5.3-22.2-14.4-30.9-25.4c-11.8-14.9-25.3-28-39.5-37.5c-36.9-24.8-67.6-72.4-71.5-114.7
			C25.8,28,58.1,5.3,102.4,25.6z"/>
	</g>
	<g>
		<g class="st1">
			<g>
				<path class="st2" d="M154,237.1l-4.6,2.7c0.7-0.4,1.2-1.3,1.2-2.6l4.6-2.7C155.2,235.8,154.7,236.6,154,237.1z"/>
			</g>
			<g>
				<path class="st2" d="M90.3,40.7L95,38c0.7-0.4,1.7-0.4,2.9,0.3L93.2,41C92.1,40.4,91.1,40.3,90.3,40.7z"/>
			</g>
			<g>
				<polygon class="st3" points="150.9,78.9 155.5,76.2 155.2,234.5 150.5,237.2 				"/>
			</g>
			<g>
				<polygon class="st4" points="93.2,41 97.8,38.3 151.5,69.3 146.9,72 				"/>
			</g>
			<g>
				<path class="st5" d="M146.9,72c2.2,1.3,4,4.4,4,6.9l-0.4,158.2c0,2.6-1.8,3.6-4,2.3l-53.7-31c-2.2-1.3-4-4.4-4-6.9l0.4-158.2
					c0-2.6,1.8-3.6,4-2.3L146.9,72z"/>
				<path class="st6" d="M95.1,204.4c-0.8-0.4-1.7-2-1.7-2.9l0.4-154.8l50.7,29.3c0.8,0.4,1.7,2,1.7,2.9l-0.4,154.8L95.1,204.4z"/>
				<g>
					<polygon class="st5" points="130.9,67.4 128.6,71 110.3,60.5 108,54.2 					"/>
				</g>
			</g>
			<g>
				<path class="st2" d="M146.9,72l4.6-2.7c2.2,1.3,4,4.4,4,6.9l-4.6,2.7C150.9,76.4,149.1,73.3,146.9,72z"/>
			</g>
		</g>
	</g>
	<g>
		<g class="st1">
			<g>
				<polygon class="st7" points="66,86.2 73.2,82 78.5,81.5 71.3,85.7 				"/>
			</g>
			<g>
				<polygon class="st8" points="91.2,110.5 98.5,106.3 98.4,113.3 91.2,117.5 				"/>
			</g>
			<g>
				<path class="st7" d="M81.8,81.5l7.3-4.2C87.8,78,87,79.6,87,81.8c0,4.5,3.2,10.1,7.1,12.3l-7.3,4.2c-3.9-2.3-7.1-7.8-7.1-12.3
					C79.7,83.8,80.5,82.2,81.8,81.5z"/>
			</g>
			<g>
				<path class="st7" d="M99.2,94.7l-7.3,4.2c-1.3,0.8-3.1,0.6-5.1-0.5l7.3-4.2C96.1,95.3,97.9,95.4,99.2,94.7z"/>
			</g>
			<g>
				<polygon class="st8" points="70.4,63.9 77.7,59.7 83,66.2 75.7,70.5 				"/>
			</g>
			<g>
				<polygon class="st7" points="105.5,113.4 112.8,109.2 110.6,112.3 103.3,116.5 				"/>
			</g>
			<g>
				<path class="st7" d="M75.7,70.5l7.3-4.2c1.9-1,4.2-1.3,6.9-0.6l-7.3,4.2C79.9,69.2,77.6,69.4,75.7,70.5z"/>
			</g>
			<g>
				<polygon class="st7" points="107.2,111.1 114.4,106.9 112.8,109.2 105.5,113.4 				"/>
			</g>
			<g>
				<polygon class="st7" points="107.7,110.3 115,106.1 114.4,106.9 107.2,111.1 				"/>
			</g>
			<g>
				<polygon class="st8" points="102.5,103.7 109.7,99.5 115,106.1 107.7,110.3 				"/>
			</g>
			<g>
				<path class="st7" d="M103,99.5l7.3-4.2c0,1.6-0.2,3-0.5,4.3l-7.3,4.2C102.8,102.5,103,101,103,99.5z"/>
			</g>
			<g>
				<polygon class="st7" points="82.6,62.8 89.8,58.6 90.9,59.3 83.7,63.5 				"/>
			</g>
			<g>
				<path class="st7" d="M102.5,94.7l7.3-4.2c0.3,1.6,0.5,3.3,0.5,4.8l-7.3,4.2C103,97.9,102.8,96.3,102.5,94.7z"/>
			</g>
			<g>
				<path class="st7" d="M91.3,74.9l7.3-4.2c2.6,2.4,4.9,5.3,6.8,8.5l-7.3,4.2C96.3,80.2,93.9,77.3,91.3,74.9z"/>
			</g>
			<g>
				<polygon class="st7" points="83.7,63.5 90.9,59.3 97.5,63 90.2,67.3 				"/>
			</g>
			<g>
				<polygon class="st8" points="91.3,67.9 98.6,63.7 98.6,70.7 91.3,74.9 				"/>
			</g>
			<g>
				<polygon class="st7" points="90.2,67.3 97.5,63 98.6,63.7 91.3,67.9 				"/>
			</g>
			<g>
				<polygon class="st7" points="107.2,92.8 114.5,88.5 115,90 107.8,94.2 				"/>
			</g>
			<g>
				<polygon class="st7" points="105.6,88.6 112.9,84.4 114.5,88.5 107.2,92.8 				"/>
			</g>
			<g>
				<polygon class="st8" points="98.1,83.4 105.4,79.2 110.7,78.7 103.4,83 				"/>
			</g>
			<g>
				<polygon class="st7" points="103.4,83 110.7,78.7 112.9,84.4 105.6,88.6 				"/>
			</g>
			<g>
				<path class="st9" d="M103,99.5c0,1.6-0.2,3-0.5,4.3l5.3,6.6l-0.6,0.8l-1.6,2.3l-2.2,3.1l-5.3-6.6c-1.9,1-4.2,1.3-6.9,0.6l0,7
					l-1.1-0.6l-6.5-3.8l-1.1-0.6l0-7c-2.6-2.4-4.9-5.3-6.8-8.5l-5.3,0.5l-2.2-5.6l-1.6-4.2L66,86.2l5.3-0.5
					c-0.3-1.6-0.5-3.3-0.5-4.8c0-1.6,0.2-3,0.5-4.3L66,70.1l0.6-0.8l1.6-2.3l2.2-3.1l5.3,6.6c1.9-1,4.2-1.3,6.9-0.6l0-7l1.1,0.6
					l6.5,3.8l1.1,0.6l0,7c2.6,2.4,4.9,5.3,6.8,8.5l5.3-0.5l2.2,5.6l1.6,4.2l0.6,1.4l-5.3,0.5C102.8,96.3,103,97.9,103,99.5z
					 M86.9,98.4c3.9,2.3,7.2,0.4,7.2-4.1c0-4.5-3.2-10.1-7.1-12.3c-3.9-2.3-7.2-0.4-7.2,4.1C79.7,90.6,82.9,96.1,86.9,98.4"/>
			</g>
		</g>
	</g>
	<g>
		<g class="st1">
			<g>
				<polygon class="st7" points="83.1,135.8 88.1,132.9 91.7,132.6 86.7,135.5 				"/>
			</g>
			<g>
				<polygon class="st8" points="100.3,152.3 105.2,149.5 105.2,154.2 100.3,157.1 				"/>
			</g>
			<g>
				<path class="st7" d="M93.9,132.6l4.9-2.9c-0.9,0.5-1.4,1.6-1.4,3.1c0,3.1,2.2,6.8,4.8,8.4l-4.9,2.9c-2.7-1.6-4.9-5.3-4.8-8.4
					C92.5,134.2,93,133.1,93.9,132.6z"/>
			</g>
			<g>
				<path class="st7" d="M105.7,141.6l-4.9,2.9c-0.9,0.5-2.1,0.4-3.5-0.3l4.9-2.9C103.6,142,104.9,142.1,105.7,141.6z"/>
			</g>
			<g>
				<polygon class="st8" points="86.1,120.6 91.1,117.7 94.7,122.2 89.7,125.1 				"/>
			</g>
			<g>
				<polygon class="st7" points="110.1,154.3 115,151.4 113.5,153.5 108.6,156.4 				"/>
			</g>
			<g>
				<path class="st7" d="M89.7,125.1l4.9-2.9c1.3-0.7,2.9-0.9,4.7-0.4l-4.9,2.9C92.6,124.2,91,124.4,89.7,125.1z"/>
			</g>
			<g>
				<polygon class="st7" points="111.2,152.7 116.1,149.9 115,151.4 110.1,154.3 				"/>
			</g>
			<g>
				<polygon class="st7" points="111.6,152.2 116.5,149.3 116.1,149.9 111.2,152.7 				"/>
			</g>
			<g>
				<polygon class="st8" points="108,147.7 112.9,144.9 116.5,149.3 111.6,152.2 				"/>
			</g>
			<g>
				<path class="st7" d="M108.3,144.8l4.9-2.9c0,1.1-0.1,2-0.3,2.9l-4.9,2.9C108.2,146.9,108.3,145.9,108.3,144.8z"/>
			</g>
			<g>
				<polygon class="st7" points="94.4,119.9 99.4,117 100.1,117.5 95.2,120.3 				"/>
			</g>
			<g>
				<path class="st7" d="M108,141.6l4.9-2.9c0.2,1.1,0.3,2.2,0.3,3.3l-4.9,2.9C108.3,143.8,108.2,142.7,108,141.6z"/>
			</g>
			<g>
				<path class="st7" d="M100.4,128.1l4.9-2.9c1.8,1.6,3.4,3.6,4.6,5.8l-4.9,2.9C103.7,131.7,102.1,129.7,100.4,128.1z"/>
			</g>
			<g>
				<polygon class="st7" points="95.2,120.3 100.1,117.5 104.6,120 99.6,122.9 				"/>
			</g>
			<g>
				<polygon class="st8" points="100.4,123.3 105.3,120.5 105.3,125.2 100.4,128.1 				"/>
			</g>
			<g>
				<polygon class="st7" points="99.6,122.9 104.6,120 105.3,120.5 100.4,123.3 				"/>
			</g>
			<g>
				<polygon class="st7" points="111.2,140.3 116.1,137.4 116.5,138.4 111.6,141.2 				"/>
			</g>
			<g>
				<polygon class="st7" points="110.1,137.4 115,134.5 116.1,137.4 111.2,140.3 				"/>
			</g>
			<g>
				<polygon class="st8" points="105,133.9 110,131 113.6,130.7 108.6,133.6 				"/>
			</g>
			<g>
				<polygon class="st7" points="108.6,133.6 113.6,130.7 115,134.5 110.1,137.4 				"/>
			</g>
			<g>
				<path class="st9" d="M108.3,144.8c0,1.1-0.1,2-0.3,2.9l3.6,4.5l-0.4,0.5l-1.1,1.6l-1.5,2.1l-3.6-4.5c-1.3,0.7-2.9,0.9-4.7,0.4
					l0,4.8l-0.8-0.4l-4.4-2.6l-0.8-0.4l0-4.8c-1.8-1.6-3.4-3.6-4.6-5.8l-3.6,0.3l-1.5-3.8l-1.1-2.8l-0.4-1l3.6-0.3
					c-0.2-1.1-0.3-2.2-0.3-3.3c0-1.1,0.1-2,0.3-2.9l-3.6-4.5l0.4-0.5l1.1-1.6l1.5-2.1l3.6,4.5c1.3-0.7,2.9-0.9,4.7-0.4l0-4.8
					l0.8,0.4l4.4,2.6l0.8,0.4l0,4.8c1.8,1.6,3.4,3.6,4.6,5.8l3.6-0.3l1.5,3.8l1.1,2.8l0.4,1l-3.6,0.3
					C108.2,142.7,108.3,143.8,108.3,144.8z M97.3,144.1c2.7,1.6,4.9,0.3,4.9-2.8c0-3.1-2.2-6.8-4.8-8.4c-2.7-1.6-4.9-0.3-4.9,2.8
					C92.5,138.8,94.7,142.5,97.3,144.1"/>
			</g>
		</g>
	</g>
	<g>
		<g class="st1">
			<g>
				<polygon class="st10" points="141,209.6 147.7,205.7 145.6,204.5 138.9,208.4 				"/>
			</g>
			<g>
				<polygon class="st11" points="147.3,213.2 154,209.3 147.7,205.7 141,209.6 				"/>
			</g>
			<g>
				<polygon class="st11" points="138.9,208.4 138.8,243.5 149.3,249.5 149.4,214.4 147.3,213.2 141,209.6 				"/>
			</g>
			<g>
				<polygon class="st12" points="149.3,249.5 156,245.6 156.1,210.5 149.4,214.4 				"/>
			</g>
			<g>
				<polygon class="st10" points="149.4,214.4 156.1,210.5 154,209.3 147.3,213.2 				"/>
			</g>
		</g>
		<g class="st1">
			<g>
				<path class="st3" d="M147.8,190.7c-1.1,0.6-2.2,1.3-3.3,1.9c-0.6,0.3-1.2,0.7-1.7,1c-0.5,0.3-1.1,0.6-1.6,0.9
					c1,0.8,2.1,1.5,3.1,2.1l6.7-3.9C149.8,192.2,148.8,191.5,147.8,190.7z"/>
			</g>
			<g>
				<path class="st13" d="M144.2,196.7c-1.1-0.6-2.1-1.3-3.1-2.1l0,15l6.3,3.6l0-15C146.3,197.8,145.3,197.3,144.2,196.7z"/>
			</g>
			<g>
				<polygon class="st3" points="147.3,213.2 154,209.3 154,194.3 147.3,198.2 				"/>
			</g>
			<g>
				<path class="st3" d="M154,194.3c-1-0.4-2.1-0.9-3.1-1.5c-2,1.1-3.9,2.3-5.9,3.4l-0.8,0.5c1.1,0.6,2.1,1.1,3.1,1.5
					C149.6,196.9,151.8,195.6,154,194.3z"/>
			</g>
			<g>
				<polygon class="st3" points="144.4,190.6 151.1,186.7 150.7,186.5 144,190.4 				"/>
			</g>
			<g>
				<path class="st3" d="M144,190.4c0.1,0,0.1,0.1,0.2,0.1s0.1,0.1,0.2,0.1L144,190.4z"/>
			</g>
			<g>
				<path class="st14" d="M140.3,150.8l-6.7,3.9c-2.7,1.6-4.4,4.9-4.4,9.7c0,9.5,6.6,21.1,14.9,26l6.7-3.9
					c-8.3-4.9-14.9-16.4-14.9-26C135.9,155.8,137.6,152.4,140.3,150.8z"/>
			</g>
			<g>
				<path class="st14" d="M155,191.5l6.7-3.9c-2.7,1.6-6.4,1.4-10.6-0.9c-0.1,0-0.1-0.1-0.2-0.1c-0.1,0-0.1-0.1-0.2-0.1l-6.7,3.9
					c0.1,0,0.1,0.1,0.2,0.1c0.1,0,0.1,0.1,0.2,0.1C148.5,192.9,152.3,193.1,155,191.5z"/>
			</g>
			<g>
				<path class="st14" d="M136.4,144.3l-6.7,3.9c3.7-2.2,8.9-1.9,14.6,1.4l6.7-3.9C145.3,142.4,140.2,142.1,136.4,144.3z"/>
			</g>
			<g>
				<path class="st14" d="M158.8,198.1l6.7-3.9c3.7-2.1,6-6.7,6-13.1c0-13-9.1-28.8-20.4-35.4l-6.7,3.9
					c11.3,6.5,20.5,22.4,20.4,35.4C164.7,191.4,162.5,196,158.8,198.1z"/>
			</g>
			<g>
				<path class="st15" d="M164.8,185c0,11.8-7.6,17.2-17.4,13.2c-1-0.4-2.1-0.9-3.1-1.5c-1.1-0.6-2.1-1.3-3.1-2.1
					c-9.8-7.4-17.3-21.5-17.3-33.3c0-13,9.2-18.2,20.6-11.7C155.6,156.1,164.8,172,164.8,185z M144,190.4c0.1,0,0.1,0.1,0.2,0.1
					c0.1,0,0.1,0.1,0.2,0.1c8.3,4.6,14.9,0.8,15-8.7c0-9.6-6.7-21.3-15-26.1c-8.3-4.8-15.1-1-15.1,8.6
					C129.1,173.9,135.8,185.5,144,190.4"/>
			</g>
		</g>
	</g>
	<g>
		<g>
			<g>
				<g>
					<polygon class="st16" points="169.9,165.9 177.7,161.4 184.7,155.3 176.9,159.9 					"/>
					<path class="st16" d="M204.9,126.3l-29.8-17.2c-2.1-1.2-3.9-1.3-5.3-0.5l-7.8,4.5c1.3-0.8,3.2-0.7,5.3,0.5l29.8,17.2
						c4.1,2.4,7.4,8.1,7.4,12.8l-0.1,23.6c0,2.3-0.8,4-2.2,4.7l7.8-4.5c1.3-0.8,2.1-2.4,2.2-4.7l0.1-23.6
						C212.3,134.4,209,128.7,204.9,126.3z"/>
				</g>
			</g>
			<g>
				<path class="st6" d="M197.1,130.9c4.1,2.4,7.4,8.1,7.4,12.8l-0.1,23.6c0,4.7-3.3,6.6-7.4,4.2l-20.1-11.6l-7,6.1l0-10.1l-2.8-1.6
					c-4.1-2.4-7.4-8.1-7.4-12.8l0.1-23.6c0-4.7,3.3-6.6,7.4-4.2L197.1,130.9z"/>
			</g>
		</g>
		<g>
			<g>
				<g class="st1">
					<g>
						<path class="st16" d="M168.9,132.2l0.7-0.4c0.4-0.2,0.9-0.2,1.5,0.1l-0.7,0.4C169.8,132,169.3,132,168.9,132.2z"/>
					</g>
					<g>
						<path class="st16" d="M172.5,136.9l-0.7,0.4c0.4-0.2,0.6-0.7,0.6-1.3c0-1.3-0.9-2.9-2.1-3.6l0.7-0.4c1.1,0.7,2.1,2.3,2.1,3.6
							C173.1,136.2,172.9,136.7,172.5,136.9z"/>
					</g>
					<g>
						<path class="st17" d="M170.4,132.4c1.1,0.7,2.1,2.3,2.1,3.6c0,1.3-0.9,1.8-2.1,1.2c-1.1-0.7-2.1-2.3-2.1-3.6
							C168.3,132.2,169.2,131.7,170.4,132.4z"/>
					</g>
				</g>
			</g>
			<g>
				<g class="st1">
					<g>
						<path class="st16" d="M174.9,136.3l0.7-0.4c0.4-0.2,0.9-0.2,1.5,0.1l-0.7,0.4C175.8,136.1,175.2,136.1,174.9,136.3z"/>
					</g>
					<g>
						<path class="st16" d="M178.5,141l-0.7,0.4c0.4-0.2,0.6-0.7,0.6-1.3c0-1.3-0.9-2.9-2.1-3.6l0.7-0.4c1.1,0.7,2.1,2.3,2.1,3.6
							C179.1,140.3,178.9,140.8,178.5,141z"/>
					</g>
					<g>
						<path class="st17" d="M176.3,136.5c1.1,0.7,2.1,2.3,2.1,3.6c0,1.3-0.9,1.8-2.1,1.2c-1.1-0.7-2.1-2.3-2.1-3.6
							C174.3,136.3,175.2,135.8,176.3,136.5z"/>
					</g>
				</g>
			</g>
			<g>
				<g class="st1">
					<g>
						<path class="st16" d="M180.8,140.4l0.7-0.4c0.4-0.2,0.9-0.2,1.5,0.1l-0.7,0.4C181.7,140.3,181.2,140.2,180.8,140.4z"/>
					</g>
					<g>
						<path class="st16" d="M184.5,145.1l-0.7,0.4c0.4-0.2,0.6-0.7,0.6-1.3c0-1.3-0.9-2.9-2.1-3.6l0.7-0.4c1.1,0.7,2.1,2.3,2.1,3.6
							C185.1,144.4,184.8,144.9,184.5,145.1z"/>
					</g>
					<g>
						<path class="st17" d="M182.3,140.6c1.1,0.7,2.1,2.3,2.1,3.6s-0.9,1.8-2.1,1.2c-1.1-0.7-2.1-2.3-2.1-3.6
							S181.2,139.9,182.3,140.6z"/>
					</g>
				</g>
			</g>
			<g>
				<g class="st1">
					<g>
						<path class="st16" d="M186.8,144.6l0.7-0.4c0.4-0.2,0.9-0.2,1.5,0.1l-0.7,0.4C187.7,144.4,187.2,144.3,186.8,144.6z"/>
					</g>
					<g>
						<path class="st16" d="M190.4,149.2l-0.7,0.4c0.4-0.2,0.6-0.7,0.6-1.3c0-1.3-0.9-2.9-2.1-3.6l0.7-0.4c1.1,0.7,2.1,2.3,2.1,3.6
							C191,148.5,190.8,149,190.4,149.2z"/>
					</g>
					<g>
						<path class="st17" d="M188.3,144.7c1.1,0.7,2.1,2.3,2.1,3.6c0,1.3-0.9,1.8-2.1,1.2c-1.1-0.7-2.1-2.3-2.1-3.6
							C186.2,144.6,187.1,144,188.3,144.7z"/>
					</g>
				</g>
			</g>
		</g>
	</g>
	<g>
		<g>
			<path class="st18" d="M137.6,42.2l-4.7,2.7c0.5-0.3,1.2-0.2,1.9,0.2l2.3,1.3l4.7-2.7l-2.3-1.3C138.7,41.9,138.1,41.9,137.6,42.2z
				"/>
			<path class="st18" d="M196.4,75.2l-1.9-1.1c0.5-0.9,0.8-2.2,0.8-3.6c0-5.2-3.6-11.6-8.2-14.2c-2.3-1.3-4.3-1.4-5.8-0.6l-3,1.7
				c-0.4-0.3-0.8-0.6-1.2-0.9c-0.3-0.2-0.7-0.4-1-0.5c0.2-0.8,0.2-1.8,0.2-2.7c0-8.6-6-19-13.5-23.4c-3.8-2.2-7.2-2.4-9.6-0.9
				l-4.6,2.7c-2-0.8-3.9-0.8-5.3,0l-4.7,2.7c1.7-1,4-0.8,6.6,0.6c0.1,0.1,0.2,0.1,0.3,0.2l4.7-2.7c-0.1-0.1-0.2-0.1-0.3-0.2
				c-0.4-0.3-0.9-0.5-1.3-0.6c2.5-1.4,5.8-1.2,9.6,1c7.5,4.3,13.5,14.8,13.5,23.4c0,1-0.1,1.9-0.2,2.7c0.3,0.1,0.7,0.3,1,0.5
				c0.8,0.4,1.5,1.1,2.2,1.8l4.7-2.7c-0.1-0.2-0.3-0.3-0.5-0.5c1.1,0,2.3,0.4,3.6,1.1c4.5,2.6,8.2,9,8.2,14.2c0,1.5-0.3,2.7-0.8,3.6
				l1.9,1.1c1.5,0.9,2.7,3,2.7,4.7c0,0.9-0.3,1.5-0.8,1.7l4.7-2.7c0.5-0.3,0.8-0.9,0.8-1.7C199.1,78.2,197.9,76.1,196.4,75.2z"/>
			<g>
				<path class="st4" d="M158.1,32.8c7.5,4.3,13.5,14.8,13.5,23.4c0,1-0.1,1.9-0.2,2.7c0.3,0.1,0.7,0.3,1,0.5
					c0.8,0.4,1.5,1.1,2.2,1.8c1.1-3.2,4.2-4.2,7.8-2.1c4.5,2.6,8.2,9,8.2,14.2c0,1.5-0.3,2.7-0.8,3.6l1.9,1.1c1.5,0.9,2.7,3,2.7,4.7
					s-1.2,2.4-2.7,1.6l-56.9-32.8c-1.5-0.9-2.7-3-2.7-4.7c0-1.7,1.2-2.4,2.7-1.6l2.3,1.3c-0.8-2-1.2-4.1-1.2-6
					c0-5.9,4.2-8.2,9.3-5.3c0.1,0.1,0.2,0.1,0.3,0.2C147.5,30.7,152.4,29.5,158.1,32.8z"/>
			</g>
		</g>
	</g>
	<g>
		<g>
			<path class="st18" d="M27.5,104.7l-3.7,2.2c0.4-0.2,0.9-0.2,1.5,0.1l1.8,1.1l3.7-2.2l-1.8-1.1C28.4,104.5,27.9,104.4,27.5,104.7z
				"/>
			<path class="st18" d="M74.1,130.8l-1.5-0.9c0.4-0.7,0.6-1.7,0.7-2.9c0-4.1-2.9-9.1-6.5-11.2c-1.8-1-3.4-1.1-4.6-0.5l-2.3,1.4
				c-0.3-0.3-0.6-0.5-1-0.7c-0.3-0.2-0.5-0.3-0.8-0.4c0.1-0.7,0.2-1.4,0.2-2.2c0-6.8-4.8-15.1-10.7-18.5c-3-1.7-5.7-1.9-7.6-0.7
				l-3.7,2.1c-1.6-0.7-3.1-0.6-4.2,0l-3.7,2.2c1.3-0.8,3.2-0.7,5.2,0.5c0.1,0.1,0.2,0.1,0.3,0.2l3.7-2.2c-0.1-0.1-0.2-0.1-0.3-0.2
				c-0.4-0.2-0.7-0.4-1-0.5c1.9-1.1,4.6-0.9,7.6,0.8c5.9,3.4,10.7,11.7,10.7,18.5c0,0.8-0.1,1.5-0.2,2.2c0.3,0.1,0.5,0.2,0.8,0.4
				c0.6,0.4,1.2,0.8,1.7,1.4l3.7-2.2c-0.1-0.1-0.2-0.2-0.4-0.4c0.9,0,1.8,0.3,2.9,0.9c3.6,2.1,6.5,7.1,6.5,11.2
				c0,1.2-0.2,2.1-0.7,2.9l1.5,0.9c1.2,0.7,2.1,2.3,2.1,3.7c0,0.7-0.2,1.2-0.6,1.4l3.7-2.2c0.4-0.2,0.6-0.7,0.6-1.4
				C76.2,133.1,75.2,131.5,74.1,130.8z"/>
			<g>
				<path class="st4" d="M43.8,97.2c5.9,3.4,10.7,11.7,10.7,18.5c0,0.8-0.1,1.5-0.2,2.2c0.3,0.1,0.5,0.2,0.8,0.4
					c0.6,0.4,1.2,0.8,1.7,1.4c0.8-2.5,3.3-3.3,6.2-1.6c3.6,2.1,6.5,7.1,6.5,11.2c0,1.2-0.2,2.1-0.7,2.9l1.5,0.9
					c1.2,0.7,2.1,2.3,2.1,3.7c0,1.4-1,1.9-2.2,1.2l-45-26c-1.2-0.7-2.1-2.3-2.1-3.7c0-1.4,1-1.9,2.2-1.2l1.8,1.1
					c-0.6-1.6-1-3.2-1-4.7c0-4.6,3.3-6.5,7.3-4.2c0.1,0.1,0.2,0.1,0.3,0.2C35.4,95.6,39.3,94.6,43.8,97.2z"/>
			</g>
		</g>
	</g>
	<g>
		<path class="st6" d="M33.9,45.4c5,2.9,9,9.9,9,15.6c0,0.7-0.1,1.3-0.2,1.8c0.2,0.1,0.4,0.2,0.7,0.3c0.5,0.3,1,0.7,1.5,1.2
			c0.7-2.1,2.8-2.8,5.2-1.4c3,1.7,5.5,6,5.5,9.5c0,1-0.2,1.8-0.5,2.4l1.3,0.7c1,0.6,1.8,2,1.8,3.1c0,1.2-0.8,1.6-1.8,1l-38-21.9
			c-1-0.6-1.8-2-1.8-3.1c0-1.2,0.8-1.6,1.8-1l1.5,0.9c-0.5-1.3-0.8-2.7-0.8-4c0-3.9,2.8-5.5,6.2-3.5c0.1,0,0.1,0.1,0.2,0.1
			C26.8,44.1,30.1,43.2,33.9,45.4z"/>
	</g>
	<g>
		<path class="st6" d="M208.8,33.5c5,2.9,9,9.9,9,15.6c0,0.7-0.1,1.3-0.2,1.8c0.2,0.1,0.4,0.2,0.7,0.3c0.5,0.3,1,0.7,1.5,1.2
			c0.7-2.1,2.8-2.8,5.2-1.4c3,1.7,5.5,6,5.5,9.5c0,1-0.2,1.8-0.5,2.4l1.3,0.7c1,0.6,1.8,2,1.8,3.1c0,1.2-0.8,1.6-1.8,1l-38-21.9
			c-1-0.6-1.8-2-1.8-3.1c0-1.2,0.8-1.6,1.8-1l1.5,0.9c-0.5-1.3-0.8-2.7-0.8-4c0-3.9,2.8-5.5,6.2-3.5c0.1,0,0.1,0.1,0.2,0.1
			C201.6,32.1,204.9,31.3,208.8,33.5z"/>
	</g>
	<g>
		<path class="st6" d="M189.3,191c5.5,3.2,9.9,10.8,9.9,17.1c0,0.7-0.1,1.4-0.2,2c0.2,0.1,0.5,0.2,0.7,0.3c0.6,0.3,1.1,0.8,1.6,1.3
			c0.8-2.3,3.1-3.1,5.7-1.5c3.3,1.9,6,6.5,6,10.4c0,1.1-0.2,2-0.6,2.6l1.4,0.8c1.1,0.6,2,2.2,2,3.4c0,1.3-0.9,1.8-2,1.1l-41.6-24
			c-1.1-0.6-2-2.2-2-3.4c0-1.3,0.9-1.8,2-1.1l1.7,1c-0.6-1.5-0.9-3-0.9-4.4c0-4.3,3-6,6.8-3.9c0.1,0,0.2,0.1,0.2,0.1
			C181.5,189.5,185.1,188.6,189.3,191z"/>
	</g>
	<g>
		<path class="st6" d="M60.3,145.2c3.5,2,6.4,6.9,6.3,11c0,0.5,0,0.9-0.1,1.3c0.2,0.1,0.3,0.1,0.5,0.2c0.4,0.2,0.7,0.5,1,0.8
			c0.5-1.5,2-2,3.7-1c2.1,1.2,3.9,4.2,3.8,6.7c0,0.7-0.1,1.3-0.4,1.7l0.9,0.5c0.7,0.4,1.3,1.4,1.3,2.2c0,0.8-0.6,1.1-1.3,0.7
			l-26.7-15.4c-0.7-0.4-1.3-1.4-1.3-2.2c0-0.8,0.6-1.1,1.3-0.7l1.1,0.6c-0.4-0.9-0.6-1.9-0.6-2.8c0-2.8,2-3.9,4.4-2.5
			c0.1,0,0.1,0.1,0.2,0.1C55.3,144.3,57.7,143.7,60.3,145.2z"/>
	</g>
	<g>
		<g>
			<g class="st1">
				<g>
					<path class="st19" d="M59.6,179.9l6.7-3.9c3.7-2.1,8.8-1.8,14.4,1.4l-6.7,3.9C68.4,178,63.3,177.7,59.6,179.9z"/>
				</g>
				<g>
					<path class="st14" d="M94.9,225.3l-6.7,3.9c3.6-2.1,5.9-6.6,5.9-13c0-12.8-9-28.5-20.2-34.9l6.7-3.9
						c11.2,6.4,20.2,22.1,20.2,34.9C100.8,218.7,98.6,223.2,94.9,225.3z"/>
				</g>
				<g>
					<path class="st15" d="M74,181.3c11.2,6.4,20.2,22.1,20.2,34.9c0,12.8-9.1,18-20.3,11.5c-11.2-6.4-20.2-22.1-20.1-34.9
						C53.7,180,62.8,174.8,74,181.3z"/>
					<path class="st20" d="M82.9,227.8c-2.3,0-5-0.8-7.7-2.4c-5-2.9-9.7-7.9-13.3-14.1c-3.6-6.2-5.5-12.8-5.5-18.5
						c0-7.3,3.2-11.6,8.5-11.6c2.3,0,5,0.8,7.7,2.4c5,2.9,9.7,7.9,13.3,14.1c3.6,6.2,5.5,12.8,5.5,18.5
						C91.4,223.5,88.2,227.8,82.9,227.8z"/>
				</g>
			</g>
		</g>
		<g>
			<path class="st19" d="M76.7,190.6l0,3c2.5,1.9,4.8,4.3,6.1,8.2l-3.2-0.1c-0.8-1.9-3-4.3-5-5.5c-2.5-1.4-4.7-1.9-4.7,0.5
				c0,2.2,2.3,4,4.8,5.8c4.3,3.1,8.9,6.7,8.9,12.6c0,4.6-3.4,5.2-7,3.4l0,3.4l-3.8-2.2l0-3.2c-3.3-2.3-6.4-5.8-7.8-10.3l3.5,0.3
				c0.8,2.6,3.4,5.6,5.9,7c2.7,1.5,5.1,1.9,5.1-0.8c0-2.2-2.5-4.5-5.2-6.4c-4.2-3-8.4-6.2-8.4-11.9c0-4.5,3.5-4.5,6.9-3l0-3
				L76.7,190.6z"/>
		</g>
	</g>
</g>
</svg>
